<svg xmlns="http://www.w3.org/2000/svg" viewBox="0 0 1600 900" preserveAspectRatio="xMidYMid slice">
  <defs>
    <radialGradient id="nebula1" cx="30%" cy="40%" r="45%">
      <stop offset="0%" stop-color="#6c63ff" stop-opacity="0.15"/>
      <stop offset="50%" stop-color="#4338ca" stop-opacity="0.06"/>
      <stop offset="100%" stop-color="transparent"/>
    </radialGradient>
    <radialGradient id="nebula2" cx="70%" cy="55%" r="40%">
      <stop offset="0%" stop-color="#ec4899" stop-opacity="0.1"/>
      <stop offset="50%" stop-color="#be185d" stop-opacity="0.04"/>
      <stop offset="100%" stop-color="transparent"/>
    </radialGradient>
    <radialGradient id="nebula3" cx="55%" cy="30%" r="30%">
      <stop offset="0%" stop-color="#06b6d4" stop-opacity="0.08"/>
      <stop offset="100%" stop-color="transparent"/>
    </radialGradient>
    <linearGradient id="cosmicBase" x1="0%" y1="0%" x2="100%" y2="100%">
      <stop offset="0%" stop-color="#030712"/>
      <stop offset="50%" stop-color="#0a0520"/>
      <stop offset="100%" stop-color="#030712"/>
    </linearGradient>
  </defs>
  <rect width="1600" height="900" fill="url(#cosmicBase)"/>
  <!-- Nebula clouds -->
  <rect width="1600" height="900" fill="url(#nebula1)"/>
  <rect width="1600" height="900" fill="url(#nebula2)"/>
  <rect width="1600" height="900" fill="url(#nebula3)"/>
  <!-- Dust band -->
  <ellipse cx="800" cy="420" rx="700" ry="180" fill="#6c63ff" fill-opacity="0.025"/>
  <ellipse cx="600" cy="380" rx="500" ry="120" fill="#ec4899" fill-opacity="0.02"/>
  <!-- Stars -->
  <circle cx="120" cy="80" r="1.5" fill="#fff" fill-opacity="0.8"/>
  <circle cx="340" cy="150" r="1" fill="#fff" fill-opacity="0.6"/>
  <circle cx="560" cy="60" r="1.5" fill="#fff" fill-opacity="0.7"/>
  <circle cx="780" cy="120" r="1" fill="#e0e7ff" fill-opacity="0.5"/>
  <circle cx="1000" cy="90" r="1.5" fill="#fff" fill-opacity="0.8"/>
  <circle cx="1250" cy="160" r="1" fill="#fff" fill-opacity="0.6"/>
  <circle cx="1430" cy="70" r="1.5" fill="#fff" fill-opacity="0.7"/>
  <circle cx="200" cy="280" r="1" fill="#e0e7ff" fill-opacity="0.5"/>
  <circle cx="480" cy="320" r="1.5" fill="#fff" fill-opacity="0.6"/>
  <circle cx="720" cy="260" r="1" fill="#fff" fill-opacity="0.5"/>
  <circle cx="1100" cy="290" r="1.5" fill="#fff" fill-opacity="0.7"/>
  <circle cx="1350" cy="340" r="1" fill="#e0e7ff" fill-opacity="0.5"/>
  <circle cx="150" cy="500" r="1" fill="#fff" fill-opacity="0.5"/>
  <circle cx="400" cy="550" r="1.5" fill="#fff" fill-opacity="0.6"/>
  <circle cx="650" cy="480" r="1" fill="#fff" fill-opacity="0.4"/>
  <circle cx="900" cy="530" r="1.5" fill="#fff" fill-opacity="0.6"/>
  <circle cx="1180" cy="500" r="1" fill="#e0e7ff" fill-opacity="0.5"/>
  <circle cx="1400" cy="560" r="1.5" fill="#fff" fill-opacity="0.7"/>
  <circle cx="260" cy="700" r="1" fill="#fff" fill-opacity="0.4"/>
  <circle cx="550" cy="740" r="1.5" fill="#fff" fill-opacity="0.5"/>
  <circle cx="800" cy="680" r="1" fill="#fff" fill-opacity="0.4"/>
  <circle cx="1050" cy="720" r="1.5" fill="#fff" fill-opacity="0.6"/>
  <circle cx="1300" cy="760" r="1" fill="#e0e7ff" fill-opacity="0.4"/>
  <circle cx="1500" cy="690" r="1.5" fill="#fff" fill-opacity="0.5"/>
  <!-- Bright star -->
  <circle cx="1000" cy="200" r="3" fill="#fff" fill-opacity="0.9"/>
  <circle cx="1000" cy="200" r="8" fill="#fff" fill-opacity="0.08"/>
  <!-- Floor glow -->
  <ellipse cx="800" cy="850" rx="500" ry="80" fill="#6c63ff" fill-opacity="0.03"/>
</svg>
