<svg xmlns="http://www.w3.org/2000/svg" width="1200" height="675" viewBox="0 0 1200 675" role="img" aria-labelledby="s3-title s3-desc">
  <title id="s3-title">Scene 3 — Alice studies for the Vietnamese labour-law exam</title>
  <desc id="s3-desc">Flat illustration of Alice at a midnight desk surrounded by Bộ luật Lao động chapters, lecture slides, sticky notes, and her laptop. Coloured arrows show her notes being chopped into chunks, fingerprinted, and matched to her question.</desc>

  <rect width="1200" height="675" fill="#0f172a"/>
  <rect x="0" y="510" width="1200" height="165" fill="#111827"/>
  <line x1="0" y1="510" x2="1200" y2="510" stroke="#1e293b" stroke-width="2"/>

  <!-- midnight clock on wall -->
  <circle cx="120" cy="120" r="50" fill="#1e293b" stroke="#334155" stroke-width="3"/>
  <circle cx="120" cy="120" r="3" fill="#f1f5f9"/>
  <line x1="120" y1="120" x2="120" y2="84" stroke="#f1f5f9" stroke-width="3" stroke-linecap="round"/>
  <line x1="120" y1="120" x2="120" y2="124" stroke="#f1f5f9" stroke-width="3" stroke-linecap="round"/>
  <text x="80" y="200" fill="#94a3b8" font-family="Inter, Segoe UI, sans-serif" font-size="13">12:04 — exam in 3 days</text>

  <!-- desk -->
  <rect x="0" y="500" width="1200" height="20" fill="#475569"/>
  <rect x="0" y="510" width="1200" height="6" fill="#334155"/>

  <!-- stack of PDFs / labour code chapters -->
  <g transform="translate(60 420)">
    <rect x="0" y="0" width="160" height="80" rx="3" fill="#7c6fff"/>
    <rect x="6" y="-12" width="160" height="80" rx="3" fill="#5a4ed1"/>
    <rect x="12" y="-24" width="160" height="80" rx="3" fill="#4338ca"/>
    <text x="20" y="-2" fill="#fff" font-family="Inter, Segoe UI, sans-serif" font-size="13" font-weight="700">BỘ LUẬT LAO ĐỘNG 2019</text>
    <text x="20" y="14" fill="#dbd6ff" font-family="Inter, Segoe UI, sans-serif" font-size="11">Ch. 3 — Hợp đồng lao động</text>
  </g>

  <!-- sticky notes on wall -->
  <g>
    <rect x="220" y="60" width="100" height="100" fill="#fbbf24"/>
    <text x="232" y="86" fill="#0f172a" font-family="Inter, Segoe UI, sans-serif" font-size="11" font-weight="700">Hợp đồng</text>
    <text x="232" y="102" fill="#0f172a" font-family="Inter, Segoe UI, sans-serif" font-size="11">thử việc</text>
    <text x="232" y="118" fill="#0f172a" font-family="Inter, Segoe UI, sans-serif" font-size="11">≤ 180 ngày</text>
    <text x="232" y="138" fill="#0f172a" font-family="Inter, Segoe UI, sans-serif" font-size="10">— Cô Hằng</text>
  </g>
  <g transform="rotate(4 380 110)">
    <rect x="340" y="80" width="90" height="90" fill="#f472b6"/>
    <text x="350" y="106" fill="#0f172a" font-family="Inter, Segoe UI, sans-serif" font-size="11" font-weight="700">Article 25</text>
    <text x="350" y="124" fill="#0f172a" font-family="Inter, Segoe UI, sans-serif" font-size="10">probation</text>
    <text x="350" y="138" fill="#0f172a" font-family="Inter, Segoe UI, sans-serif" font-size="10">— check</text>
    <text x="350" y="152" fill="#0f172a" font-family="Inter, Segoe UI, sans-serif" font-size="10">classifiers</text>
  </g>
  <g transform="rotate(-3 470 110)">
    <rect x="450" y="80" width="90" height="90" fill="#34d399"/>
    <text x="460" y="106" fill="#0f172a" font-family="Inter, Segoe UI, sans-serif" font-size="11" font-weight="700">Lecture 4</text>
    <text x="460" y="124" fill="#0f172a" font-family="Inter, Segoe UI, sans-serif" font-size="10">transcript</text>
    <text x="460" y="138" fill="#0f172a" font-family="Inter, Segoe UI, sans-serif" font-size="10">— bilingual</text>
  </g>

  <!-- mug -->
  <rect x="240" y="450" width="60" height="50" rx="6" fill="#f1f5f9"/>
  <path d="M300 462 q18 0 18 18 q0 18 -18 18" fill="none" stroke="#f1f5f9" stroke-width="5"/>
  <ellipse cx="270" cy="452" rx="28" ry="5" fill="#7c2d12"/>

  <!-- laptop -->
  <g>
    <polygon points="540,500 980,500 1010,520 510,520" fill="#475569"/>
    <rect x="505" y="518" width="510" height="6" fill="#334155"/>
    <rect x="540" y="220" width="440" height="284" rx="10" fill="#1e293b" stroke="#334155" stroke-width="3"/>
    <rect x="554" y="234" width="412" height="256" rx="6" fill="#0f172a"/>

    <!-- title bar -->
    <rect x="554" y="234" width="412" height="32" fill="#111827"/>
    <circle cx="568" cy="250" r="4" fill="#ef4444"/>
    <circle cx="582" cy="250" r="4" fill="#fbbf24"/>
    <circle cx="596" cy="250" r="4" fill="#34d399"/>
    <text x="616" y="255" fill="#94a3b8" font-family="Inter, Segoe UI, sans-serif" font-size="12">TerranSoul — chat</text>

    <!-- Alice's question -->
    <rect x="630" y="278" width="320" height="42" rx="10" fill="#1e293b"/>
    <text x="648" y="296" fill="#f1f5f9" font-family="Inter, Segoe UI, sans-serif" font-size="12">Alice:</text>
    <text x="648" y="312" fill="#cbd5e1" font-family="Inter, Segoe UI, sans-serif" font-size="11">What did Cô Hằng say about probationary contracts?</text>

    <!-- retrieval block -->
    <rect x="568" y="332" width="384" height="148" rx="10" fill="#172033" stroke="#334155"/>
    <text x="582" y="352" fill="#7c6fff" font-family="Inter, Segoe UI, sans-serif" font-size="11" font-weight="700">RETRIEVED FROM YOUR NOTES</text>
    <rect x="582" y="362" width="356" height="34" rx="6" fill="#0f172a" stroke="#334155"/>
    <text x="592" y="378" fill="#cbd5e1" font-family="Inter, Segoe UI, sans-serif" font-size="11">"Max 180 days for management roles."</text>
    <text x="592" y="392" fill="#94a3b8" font-family="JetBrains Mono, Consolas, monospace" font-size="9">lecture-4.txt · margin note · 0.91</text>
    <rect x="582" y="402" width="356" height="34" rx="6" fill="#0f172a" stroke="#334155"/>
    <text x="592" y="418" fill="#cbd5e1" font-family="Inter, Segoe UI, sans-serif" font-size="11">"Probation must specify salary ≥ 85% of role wage."</text>
    <text x="592" y="432" fill="#94a3b8" font-family="JetBrains Mono, Consolas, monospace" font-size="9">labour-code.pdf · §6 ch.3 · 0.84</text>
    <rect x="582" y="442" width="356" height="30" rx="6" fill="#0f172a" stroke="#334155"/>
    <text x="592" y="461" fill="#94a3b8" font-family="Inter, Segoe UI, sans-serif" font-size="10">+ 2 more, dropped (low score)</text>
  </g>

  <!-- right side: chunks → fingerprints → match (visual diagram) -->
  <g>
    <text x="1010" y="240" fill="#7c6fff" font-family="Inter, Segoe UI, sans-serif" font-size="12" font-weight="700">CHUNKS</text>
    <rect x="1000" y="252" width="160" height="22" rx="3" fill="#1e293b" stroke="#334155"/>
    <rect x="1000" y="278" width="160" height="22" rx="3" fill="#1e293b" stroke="#334155"/>
    <rect x="1000" y="304" width="160" height="22" rx="3" fill="#1e293b" stroke="#334155"/>
    <rect x="1000" y="330" width="160" height="22" rx="3" fill="#172033" stroke="#34d399"/>
    <rect x="1000" y="356" width="160" height="22" rx="3" fill="#1e293b" stroke="#334155"/>
    <rect x="1000" y="382" width="160" height="22" rx="3" fill="#172033" stroke="#34d399"/>
    <text x="1008" y="268" fill="#cbd5e1" font-family="JetBrains Mono, Consolas, monospace" font-size="10">[0.12, -0.44, 0.81 …]</text>
    <text x="1008" y="294" fill="#cbd5e1" font-family="JetBrains Mono, Consolas, monospace" font-size="10">[0.07, -0.51, 0.62 …]</text>
    <text x="1008" y="320" fill="#cbd5e1" font-family="JetBrains Mono, Consolas, monospace" font-size="10">[0.55, 0.18, -0.04 …]</text>
    <text x="1008" y="346" fill="#bfead8" font-family="JetBrains Mono, Consolas, monospace" font-size="10">[0.83, 0.29, 0.41 …]</text>
    <text x="1008" y="372" fill="#cbd5e1" font-family="JetBrains Mono, Consolas, monospace" font-size="10">[0.11, -0.07, 0.95 …]</text>
    <text x="1008" y="398" fill="#bfead8" font-family="JetBrains Mono, Consolas, monospace" font-size="10">[0.79, 0.34, 0.38 …]</text>

    <text x="1008" y="430" fill="#34d399" font-family="Inter, Segoe UI, sans-serif" font-size="11" font-weight="700">↑ matched the question</text>
  </g>

  <!-- Alice (small) at desk, head propped on hand -->
  <g transform="translate(380 350)">
    <path d="M-30 130 L-22 50 Q-18 22 14 22 L60 22 Q92 22 96 50 L104 130 Z" fill="#7c6fff"/>
    <rect x="20" y="6" width="20" height="20" fill="#f5d6c0"/>
    <circle cx="30" cy="-12" r="32" fill="#f5d6c0"/>
    <path d="M-2 -10 Q-4 -46 30 -50 Q64 -46 62 -10 L62 -28 Q46 -38 30 -34 Q14 -38 -2 -28 Z" fill="#3f3a52"/>
    <path d="M-2 -10 Q-4 18 6 26 L6 2 Q0 -2 -2 -10 Z" fill="#3f3a52"/>
    <circle cx="20" cy="-8" r="2.4" fill="#0f172a"/>
    <circle cx="40" cy="-8" r="2.4" fill="#0f172a"/>
    <path d="M22 6 q8 4 16 0" fill="none" stroke="#0f172a" stroke-width="2" stroke-linecap="round"/>
    <!-- arm propping head -->
    <path d="M-12 60 Q4 30 18 14" fill="none" stroke="#7c6fff" stroke-width="14" stroke-linecap="round"/>
  </g>

  <!-- caption strip -->
  <rect x="60" y="540" width="1080" height="100" rx="12" fill="#111827" stroke="#1e293b"/>
  <text x="84" y="572" fill="#7c6fff" font-family="Inter, Segoe UI, sans-serif" font-size="14" font-weight="700">SCENE 3 · CLASSIC RAG (vector)</text>
  <text x="84" y="598" fill="#f1f5f9" font-family="Inter, Segoe UI, sans-serif" font-size="18" font-weight="700">"What did Cô Hằng say about X?" — answered from Alice's actual notes.</text>
  <text x="84" y="622" fill="#94a3b8" font-family="Inter, Segoe UI, sans-serif" font-size="13">Chunk → fingerprint → match → cite. Great for this question. Not enough for the next one.</text>
</svg>
