<svg xmlns="http://www.w3.org/2000/svg" width="1200" height="675" viewBox="0 0 1200 675" role="img" aria-labelledby="s5-title s5-desc">
  <title id="s5-title">Scene 5 — Alice shares her brain with Bob over LAN, on a Tuesday</title>
  <desc id="s5-desc">Flat illustration of two laptops on a kitchen table, Alice on the left and Bob on the right, a Wi-Fi arc between them, and a status panel showing "Alice — Vietnamese law notes · 192.168.1.42:7421 · token-required · read-only", a p95 latency chip, a confidence chip, and a benchmarks chip.</desc>

  <rect width="1200" height="675" fill="#0f172a"/>
  <rect x="0" y="510" width="1200" height="165" fill="#111827"/>
  <line x1="0" y1="510" x2="1200" y2="510" stroke="#1e293b" stroke-width="2"/>

  <!-- kitchen table -->
  <rect x="0" y="500" width="1200" height="20" fill="#7c6f5b"/>
  <rect x="0" y="510" width="1200" height="6" fill="#5d503f"/>

  <!-- two coffee mugs -->
  <rect x="80" y="466" width="50" height="40" rx="5" fill="#f1f5f9"/>
  <path d="M130 476 q14 0 14 14 q0 14 -14 14" fill="none" stroke="#f1f5f9" stroke-width="4"/>
  <ellipse cx="105" cy="468" rx="22" ry="4" fill="#7c2d12"/>
  <rect x="1060" y="466" width="50" height="40" rx="5" fill="#f1f5f9"/>
  <path d="M1110 476 q14 0 14 14 q0 14 -14 14" fill="none" stroke="#f1f5f9" stroke-width="4"/>
  <ellipse cx="1085" cy="468" rx="22" ry="4" fill="#7c2d12"/>

  <!-- Alice's laptop (left) -->
  <g>
    <polygon points="180,500 380,500 392,520 168,520" fill="#475569"/>
    <rect x="166" y="518" width="228" height="6" fill="#334155"/>
    <rect x="180" y="320" width="200" height="180" rx="8" fill="#1e293b" stroke="#334155" stroke-width="3"/>
    <rect x="190" y="330" width="180" height="160" rx="4" fill="#0f172a"/>
    <text x="200" y="350" fill="#7c6fff" font-family="Inter, Segoe UI, sans-serif" font-size="11" font-weight="700">ALICE'S TERRANSOUL</text>
    <line x1="200" y1="358" x2="360" y2="358" stroke="#1e293b" stroke-width="2"/>
    <rect x="200" y="368" width="160" height="22" rx="11" fill="#123d31" stroke="#34d399"/>
    <text x="210" y="384" fill="#34d399" font-family="Inter, Segoe UI, sans-serif" font-size="11" font-weight="700">Sharing</text>
    <text x="262" y="384" fill="#bfead8" font-family="Inter, Segoe UI, sans-serif" font-size="11">LAN brain on</text>
    <text x="200" y="406" fill="#94a3b8" font-family="Inter, Segoe UI, sans-serif" font-size="10">Name:</text>
    <text x="200" y="420" fill="#f1f5f9" font-family="Inter, Segoe UI, sans-serif" font-size="11">Alice — Vietnamese law notes</text>
    <text x="200" y="438" fill="#94a3b8" font-family="Inter, Segoe UI, sans-serif" font-size="10">Endpoint:</text>
    <text x="200" y="452" fill="#f1f5f9" font-family="JetBrains Mono, Consolas, monospace" font-size="11">192.168.1.42:7421</text>
    <text x="200" y="470" fill="#94a3b8" font-family="Inter, Segoe UI, sans-serif" font-size="10">Auth:</text>
    <text x="234" y="470" fill="#fbbf24" font-family="Inter, Segoe UI, sans-serif" font-size="10">token-required · read-only</text>
  </g>

  <!-- Bob's laptop (right) -->
  <g>
    <polygon points="820,500 1020,500 1032,520 808,520" fill="#475569"/>
    <rect x="806" y="518" width="228" height="6" fill="#334155"/>
    <rect x="820" y="320" width="200" height="180" rx="8" fill="#1e293b" stroke="#334155" stroke-width="3"/>
    <rect x="830" y="330" width="180" height="160" rx="4" fill="#0f172a"/>
    <text x="840" y="350" fill="#60a5fa" font-family="Inter, Segoe UI, sans-serif" font-size="11" font-weight="700">BOB'S TERRANSOUL</text>
    <line x1="840" y1="358" x2="1000" y2="358" stroke="#1e293b" stroke-width="2"/>
    <rect x="840" y="370" width="160" height="22" rx="6" fill="#172033" stroke="#334155"/>
    <text x="848" y="385" fill="#cbd5e1" font-family="Inter, Segoe UI, sans-serif" font-size="11">probation contract terms?</text>
    <rect x="840" y="398" width="160" height="38" rx="6" fill="#172033" stroke="#7c6fff"/>
    <text x="848" y="414" fill="#f1f5f9" font-family="Inter, Segoe UI, sans-serif" font-size="10">"Max 180 days for management;</text>
    <text x="848" y="428" fill="#f1f5f9" font-family="Inter, Segoe UI, sans-serif" font-size="10">salary ≥ 85% of role wage."</text>
    <text x="840" y="450" fill="#94a3b8" font-family="JetBrains Mono, Consolas, monospace" font-size="9">cite: lecture-4.txt · 0.91</text>
    <text x="840" y="464" fill="#94a3b8" font-family="JetBrains Mono, Consolas, monospace" font-size="9">cite: labour-code.pdf §6 · 0.84</text>
    <rect x="840" y="472" width="160" height="14" rx="3" fill="#0f172a"/>
    <text x="844" y="483" fill="#34d399" font-family="JetBrains Mono, Consolas, monospace" font-size="9">snippets only — no DB copy</text>
  </g>

  <!-- Wi-Fi arc + token shield between them -->
  <g>
    <path d="M390 380 Q600 200 810 380" fill="none" stroke="#7c6fff" stroke-width="3" stroke-dasharray="6 6"/>
    <circle cx="600" cy="276" r="40" fill="#172033" stroke="#7c6fff" stroke-width="3"/>
    <path d="M580 274 q20 -22 40 0" fill="none" stroke="#7c6fff" stroke-width="3" stroke-linecap="round"/>
    <path d="M588 282 q12 -14 24 0" fill="none" stroke="#7c6fff" stroke-width="3" stroke-linecap="round"/>
    <circle cx="600" cy="290" r="3" fill="#7c6fff"/>
    <text x="600" y="334" text-anchor="middle" fill="#94a3b8" font-family="JetBrains Mono, Consolas, monospace" font-size="11">UDP 7424 discover · HTTPS bearer · MCP brain_search</text>
  </g>

  <!-- Alice character -->
  <g transform="translate(110 290)">
    <path d="M-26 130 L-20 60 Q-16 32 12 32 L40 32 Q68 32 72 60 L78 130 Z" fill="#7c6fff"/>
    <rect x="14" y="16" width="20" height="20" fill="#f5d6c0"/>
    <circle cx="24" cy="-2" r="28" fill="#f5d6c0"/>
    <path d="M-4 -4 Q-6 -34 24 -38 Q54 -34 52 -4 L52 -22 Q38 -30 24 -26 Q10 -30 -4 -22 Z" fill="#3f3a52"/>
    <path d="M-4 -4 Q-6 22 4 30 L4 8 Q-2 4 -4 -4 Z" fill="#3f3a52"/>
    <circle cx="14" cy="-2" r="2.2" fill="#0f172a"/>
    <circle cx="34" cy="-2" r="2.2" fill="#0f172a"/>
    <path d="M14 12 q10 6 20 0" fill="none" stroke="#0f172a" stroke-width="2" stroke-linecap="round"/>
  </g>

  <!-- Bob character -->
  <g transform="translate(1080 290)">
    <path d="M-26 130 L-20 60 Q-16 32 12 32 L40 32 Q68 32 72 60 L78 130 Z" fill="#60a5fa"/>
    <rect x="14" y="16" width="20" height="20" fill="#f5d6c0"/>
    <circle cx="24" cy="-2" r="28" fill="#f5d6c0"/>
    <path d="M-4 -8 Q-6 -34 24 -38 Q54 -34 52 -8 L52 -10 Q38 -20 24 -16 Q10 -20 -4 -10 Z" fill="#5b4636"/>
    <circle cx="14" cy="-2" r="2.2" fill="#0f172a"/>
    <circle cx="34" cy="-2" r="2.2" fill="#0f172a"/>
    <path d="M14 12 q10 4 20 0" fill="none" stroke="#0f172a" stroke-width="2" stroke-linecap="round"/>
    <!-- glasses -->
    <circle cx="14" cy="-2" r="6" fill="none" stroke="#0f172a" stroke-width="1.5"/>
    <circle cx="34" cy="-2" r="6" fill="none" stroke="#0f172a" stroke-width="1.5"/>
    <line x1="20" y1="-2" x2="28" y2="-2" stroke="#0f172a" stroke-width="1.5"/>
  </g>

  <!-- top: SLO chips -->
  <g>
    <text x="600" y="64" text-anchor="middle" fill="#7c6fff" font-family="Inter, Segoe UI, sans-serif" font-size="14" font-weight="700">THE TUESDAY-AFTERNOON SCENE</text>
    <!-- speed -->
    <rect x="100" y="86" width="320" height="100" rx="10" fill="#111827" stroke="#1e293b"/>
    <text x="118" y="110" fill="#7c6fff" font-family="Inter, Segoe UI, sans-serif" font-size="11" font-weight="700">FAST</text>
    <text x="118" y="134" fill="#f1f5f9" font-family="Inter, Segoe UI, sans-serif" font-size="14" font-weight="700">p95 latency 240 ms</text>
    <text x="118" y="154" fill="#94a3b8" font-family="Inter, Segoe UI, sans-serif" font-size="11">RRF fusion + per-shard HNSW + caches</text>
    <rect x="118" y="160" width="78" height="20" rx="10" fill="#172033" stroke="#34d399"/>
    <text x="128" y="174" fill="#34d399" font-family="Inter, Segoe UI, sans-serif" font-size="10" font-weight="700">cache hit</text>
    <rect x="200" y="160" width="74" height="20" rx="10" fill="#172033" stroke="#7c6fff"/>
    <text x="210" y="174" fill="#7c6fff" font-family="Inter, Segoe UI, sans-serif" font-size="10" font-weight="700">parallel</text>
    <rect x="278" y="160" width="78" height="20" rx="10" fill="#172033" stroke="#fbbf24"/>
    <text x="288" y="174" fill="#fbbf24" font-family="Inter, Segoe UI, sans-serif" font-size="10" font-weight="700">graceful</text>
  </g>

  <!-- honest -->
  <g>
    <rect x="440" y="86" width="320" height="100" rx="10" fill="#111827" stroke="#1e293b"/>
    <text x="458" y="110" fill="#7c6fff" font-family="Inter, Segoe UI, sans-serif" font-size="11" font-weight="700">HONEST</text>
    <text x="458" y="134" fill="#f1f5f9" font-family="Inter, Segoe UI, sans-serif" font-size="14" font-weight="700">confidence + decay + receipts</text>
    <text x="458" y="154" fill="#94a3b8" font-family="Inter, Segoe UI, sans-serif" font-size="11">legal facts versioned; never silently overwritten</text>
    <rect x="458" y="160" width="98" height="20" rx="10" fill="#172033" stroke="#34d399"/>
    <text x="468" y="174" fill="#34d399" font-family="Inter, Segoe UI, sans-serif" font-size="10" font-weight="700">conf 0.91</text>
    <rect x="560" y="160" width="84" height="20" rx="10" fill="#172033" stroke="#fbbf24"/>
    <text x="572" y="174" fill="#fbbf24" font-family="Inter, Segoe UI, sans-serif" font-size="10" font-weight="700">decayed</text>
    <rect x="648" y="160" width="84" height="20" rx="10" fill="#172033" stroke="#7c6fff"/>
    <text x="660" y="174" fill="#7c6fff" font-family="Inter, Segoe UI, sans-serif" font-size="10" font-weight="700">cite line 24</text>
  </g>

  <!-- measurable -->
  <g>
    <rect x="780" y="86" width="320" height="100" rx="10" fill="#111827" stroke="#1e293b"/>
    <text x="798" y="110" fill="#7c6fff" font-family="Inter, Segoe UI, sans-serif" font-size="11" font-weight="700">MEASURABLE</text>
    <text x="798" y="134" fill="#f1f5f9" font-family="Inter, Segoe UI, sans-serif" font-size="14" font-weight="700">public benchmarks, wins + ties</text>
    <text x="798" y="154" fill="#94a3b8" font-family="Inter, Segoe UI, sans-serif" font-size="11">LongMemEval-S · LoCoMo MTEB · agentmemory</text>
    <rect x="798" y="160" width="84" height="20" rx="10" fill="#172033" stroke="#34d399"/>
    <text x="810" y="174" fill="#34d399" font-family="Inter, Segoe UI, sans-serif" font-size="10" font-weight="700">recall +6%</text>
    <rect x="886" y="160" width="78" height="20" rx="10" fill="#172033" stroke="#fbbf24"/>
    <text x="896" y="174" fill="#fbbf24" font-family="Inter, Segoe UI, sans-serif" font-size="10" font-weight="700">tie tones</text>
    <rect x="968" y="160" width="118" height="20" rx="10" fill="#172033" stroke="#7c6fff"/>
    <text x="978" y="174" fill="#7c6fff" font-family="Inter, Segoe UI, sans-serif" font-size="10" font-weight="700">on for clauses only</text>
  </g>

  <!-- caption strip -->
  <rect x="60" y="540" width="1080" height="100" rx="12" fill="#111827" stroke="#1e293b"/>
  <text x="84" y="572" fill="#7c6fff" font-family="Inter, Segoe UI, sans-serif" font-size="14" font-weight="700">SCENE 5 · HYBRID MEMORY AT SCALE</text>
  <text x="84" y="598" fill="#f1f5f9" font-family="Inter, Segoe UI, sans-serif" font-size="18" font-weight="700">Bob asks. Alice's brain answers — across the kitchen table, with receipts.</text>
  <text x="84" y="622" fill="#94a3b8" font-family="Inter, Segoe UI, sans-serif" font-size="13">LAN MCP brain sharing · ranked snippets, not the database · the most-private rule wins.</text>
</svg>
